# xmcd
#
# Track frame offsets:
#	150
#	10427
#	23970
#	35250
#	46340
#	56780
#	67475
#	78195
#	88307
#	99262
#	111222
#	120992
#	132175
#	141632
#	153822
#	167462
#	179235
#	191227
#	200602
#	211185
#	220852
#	231517
#	243850
#	254617
#	264657
#	274802
#	284602
#	293542
#	303675
#	313837
#	324240
#	334412
#
# Disc length: 4589 seconds
#
# Revision: 0
# Processed by: cddbd v1.4PL0 Copyright (c) Steve Scherf et al.
# Submitted via: EasyCDDAExtractor 4.6.0.1
#
DISCID=f411eb20
DTITLE=Johnnie and Jack and the Tennessee Mountain Boys - Johnnie and Jack and the
DTITLE=Tennessee Mountain Boys Vol 3
DYEAR=1900
DGENRE=Country
TTITLE0=S.O.S.
TTITLE1=Called From Potter's Field
TTITLE2=I'll Live With God (To Die No More)
TTITLE3=Angels Rock Me To Sleep
TTITLE4=The Eastern Gate
TTITLE5=Hank Williams Will Live Forever
TTITLE6=South Of New Orleans
TTITLE7=You're My Downfall
TTITLE8=The Winner Of My Heart
TTITLE9=Don't Say Goodbye If You Love Me
TTITLE10=Pig Latin Serenade
TTITLE11=Love Trap
TTITLE12=Cheated Out Of Love
TTITLE13=From The Manager To The Cross
TTITLE14=I'm Ready To Go
TTITLE15=God Put A Rainbow In The Clouds
TTITLE16=Don't Give Away Your Bible
TTITLE17=Crazy Worried Mind
TTITLE18=Pleasure Not A Habit In Mexico
TTITLE19=You've Got Me In Your Power
TTITLE20=Dynamite Kisses
TTITLE21=I Loved You Better Than You Ever Knew
TTITLE22=Pickup Date
TTITLE23=Borrowed Diamonds
TTITLE24=Private Property 
TTITLE25=Sos 1954
TTITLE26=(Oh Baby Mine) I Get So Lonely
TTITLE27=You're Just What The Doctor Ordered
TTITLE28=I Ain't Got Time
TTITLE29=All The Time
TTITLE30=Goodnight, Sweetheart, Goodnight
TTITLE31=Honey, I Need You
EXTD=
EXTT0=
EXTT1=
EXTT2=
EXTT3=
EXTT4=
EXTT5=
EXTT6=
EXTT7=
EXTT8=
EXTT9=
EXTT10=
EXTT11=
EXTT12=
EXTT13=
EXTT14=
EXTT15=
EXTT16=
EXTT17=
EXTT18=
EXTT19=
EXTT20=
EXTT21=
EXTT22=
EXTT23=
EXTT24=
EXTT25=
EXTT26=
EXTT27=
EXTT28=
EXTT29=
EXTT30=
EXTT31=
PLAYORDER=
